<svg width="38" height="38" viewBox="0 0 38 38" fill="none" xmlns="http://www.w3.org/2000/svg">
<path d="M19.0012 21.9693C20.3128 21.9693 21.3762 20.906 21.3762 19.5943C21.3762 18.2826 20.3128 17.2193 19.0012 17.2193C17.6895 17.2193 16.6262 18.2826 16.6262 19.5943C16.6262 20.906 17.6895 21.9693 19.0012 21.9693Z" fill="white"/>
<path d="M32.4431 18.39L28.5007 10.4107V4.75058C28.5007 4.12069 28.2505 3.5166 27.8051 3.07119C27.3598 2.6258 26.7557 2.37558 26.1257 2.37558H11.8757C11.2459 2.37558 10.6418 2.6258 10.1964 3.07119C9.75097 3.5166 9.50075 4.12069 9.50075 4.75058V10.4107L5.55838 18.3901C5.36453 18.7803 5.28218 19.2165 5.3204 19.6506C5.35863 20.0847 5.51595 20.4997 5.77503 20.8501L16.7414 35.747C16.8155 35.8477 16.9195 35.9223 17.0387 35.9605C17.1578 35.9986 17.286 35.9981 17.4047 35.959C17.5236 35.92 17.627 35.8444 17.7004 35.7432C17.7738 35.6419 17.8132 35.52 17.8132 35.3949V24.194C16.6939 23.905 15.7182 23.2176 15.0694 22.2608C14.4205 21.3039 14.1429 20.1432 14.2886 18.9963C14.4343 17.8494 14.9933 16.795 15.8607 16.0308C16.7282 15.2665 17.8447 14.8448 19.0007 14.8448C20.1569 14.8448 21.2734 15.2665 22.1408 16.0308C23.0083 16.795 23.5672 17.8494 23.7128 18.9963C23.8585 20.1432 23.5809 21.3039 22.9321 22.2608C22.2832 23.2176 21.3077 23.905 20.1882 24.194V35.3949C20.1882 35.52 20.2278 35.6419 20.3011 35.7432C20.3744 35.8444 20.478 35.92 20.5967 35.959C20.7156 35.998 20.8437 35.9986 20.9628 35.9605C21.0819 35.9223 21.1861 35.8477 21.2602 35.7468L32.2264 20.85C32.4855 20.4996 32.6428 20.0845 32.6811 19.6505C32.7192 19.2165 32.6369 18.7802 32.4431 18.39ZM26.1257 9.50058H11.8757V4.75058H26.1257V9.50058Z" fill="white"/>
</svg>
