<svg width="38" height="38" viewBox="0 0 38 38" fill="none" xmlns="http://www.w3.org/2000/svg">
<path d="M25.9223 12.0777C25.5269 9.95134 24.5582 7.97344 23.1209 6.35743C21.6834 4.74141 19.832 3.54869 17.7663 2.90798C15.7006 2.26728 13.4991 2.20294 11.3996 2.7219C9.3 3.24088 7.38204 4.32344 5.85275 5.85275C4.32344 7.38204 3.24088 9.3 2.7219 11.3996C2.20294 13.4991 2.26728 15.7006 2.90798 17.7663C3.54869 19.832 4.74141 21.6834 6.35743 23.1209C7.97344 24.5582 9.95134 25.5269 12.0777 25.9223C12.4731 28.0486 13.4418 30.0265 14.8791 31.6426C16.3166 33.2585 18.168 34.4513 20.2337 35.092C22.2993 35.7327 24.5009 35.7971 26.6005 35.2781C28.7 34.7591 30.6179 33.6765 32.1473 32.1473C33.6765 30.6179 34.7591 28.7 35.2781 26.6005C35.7971 24.5009 35.7327 22.2993 35.092 20.2337C34.4513 18.168 33.2585 16.3166 31.6426 14.8791C30.0265 13.4418 28.0486 12.4731 25.9223 12.0777ZM4.75 14.25C4.75014 11.937 5.59405 9.70356 7.12347 7.96842C8.65289 6.23329 10.7628 5.11569 13.0574 4.82521C15.3521 4.53474 17.6739 5.09133 19.5875 6.39062C21.501 7.6899 22.8748 9.64264 23.4513 11.8826C20.4083 11.9625 17.5119 13.207 15.3595 15.3595C13.2069 17.5119 11.9624 20.4083 11.8826 23.4513C9.84289 22.9235 8.03601 21.7336 6.74522 20.0685C5.45442 18.4033 4.75268 16.3569 4.75 14.25ZM23.75 33.25C21.6431 33.2473 19.5967 32.5456 17.9315 31.2548C16.2663 29.9639 15.0765 28.157 14.5487 26.1174C17.5917 26.0375 20.4881 24.793 22.6405 22.6405C24.7931 20.4881 26.0376 17.5917 26.1174 14.5487C28.3574 15.1252 30.3101 16.499 31.6093 18.4125C32.9087 20.3261 33.4653 22.648 33.1748 24.9426C32.8842 27.2372 31.7667 29.3472 30.0315 30.8765C28.2965 32.4059 26.063 33.2499 23.75 33.25Z" fill="white"/>
</svg>
