<svg width="38" height="38" viewBox="0 0 38 38" fill="none" xmlns="http://www.w3.org/2000/svg">
<path d="M32.0625 5.9375H5.9375C5.30783 5.93822 4.70416 6.18867 4.25892 6.63392C3.81367 7.07916 3.56322 7.68283 3.5625 8.3125V29.6875C3.56322 30.3171 3.81367 30.9208 4.25892 31.366C4.70416 31.8113 5.30783 32.0618 5.9375 32.0625H32.0625C32.6921 32.0618 33.2958 31.8113 33.741 31.366C34.1863 30.9208 34.4368 30.3171 34.4375 29.6875V8.3125C34.4368 7.68283 34.1863 7.07916 33.741 6.63392C33.2958 6.18867 32.6921 5.93822 32.0625 5.9375ZM5.9375 8.3125H32.0625L32.0629 14.25H32.0625H5.9375V8.3125ZM32.0625 29.6875H16.625V16.625H32.0625H32.0631L32.0639 29.6875H32.0625Z" fill="white"/>
</svg>
