<svg width="846" height="782" viewBox="0 0 846 782" fill="none" xmlns="http://www.w3.org/2000/svg">
<g opacity="0.3" clip-path="url(#clip0_6_152)">
<path d="M410.971 440.83C406.323 439.638 402.89 442.891 398.594 446.293C393.295 450.312 388.527 458.672 377.943 439.885C374.087 433.014 373.657 421.561 365.083 407.968C359.271 398.775 341.033 375.546 371.001 370.37C387.602 367.502 411.706 379.742 419.306 392.838C424.397 401.713 405.561 409.622 415.13 421.269C420.532 428.095 426.858 438.973 424.147 442.544C421.614 445.863 415.403 442.06 410.971 440.83Z" stroke="white" stroke-width="0.5"/>
<path d="M434.382 387.574C441.525 396.759 422.096 407.652 429.599 422.759C430.62 424.8 431.677 427.057 432.518 429.349C435.623 437.015 441.1 444.271 440.009 448.227C438.504 454.916 432.563 453.947 426.555 453.877C420.116 453.88 414.311 457.544 406.869 458.164C397.665 458.867 395.737 466.959 383.56 458.2C380.272 455.887 376.719 457.166 373.249 448.676C370.546 442.049 367.743 442.533 365.828 435.327C363.324 426.007 366.376 419.272 353.93 407.678C339.133 394.052 332.397 357.752 366.702 355.817C367.817 355.846 368.932 355.874 370.085 356.119C382.361 357.767 390.819 364.286 413.258 374.597C421.624 378.029 429.813 381.713 434.382 387.574Z" stroke="white" stroke-width="0.5"/>
<path d="M449.241 382.347C458.474 392.058 438.058 406.225 443.816 424.072C444.695 426.581 445.396 429.342 446.096 432.102C448.347 441.246 456.129 448.99 456.088 453.874C455.864 464.11 449.938 465.798 442.14 466.923C434.088 467.871 425.153 471.41 415.36 469.998C400.741 467.646 401.275 478.416 383.477 467.968C378.784 465.233 373.671 470.328 369.024 457.608C365.255 447.397 360.499 451.987 358.099 441.983C354.783 429.255 362.98 422.741 343.03 407.566C319.464 389.469 324.379 340.96 362.656 341.442C364.203 341.396 365.607 341.819 367.013 342.24C380.994 346.033 384.903 355.776 420.563 369.345C430.945 372.872 442.724 375.493 449.241 382.347Z" stroke="white" stroke-width="0.5"/>
<path d="M464.317 377.083C475.208 387.394 455.277 404.358 458.033 425.385C458.34 428.436 458.899 431.664 459.459 434.893C460.857 445.514 469.865 453.933 471.735 459.595C476.241 472.782 467.099 477.686 457.472 479.793C447.844 481.899 435.958 485.061 423.561 481.439C403.668 475.564 406.309 489.518 382.85 477.166C376.751 474.007 370.117 483.133 364.255 465.969C359.422 452.173 352.966 461.047 349.828 448.067C345.915 431.896 359.041 425.638 331.765 406.63C299.215 384.1 316.034 323.56 358.245 326.243C360.045 326.376 361.703 326.976 363.577 327.539C379.224 333.26 378.66 346.658 427.467 363.054C440.481 367.678 455.814 369.02 464.317 377.083Z" stroke="white" stroke-width="0.5"/>
<path d="M479.176 371.856C491.726 382.767 470.555 402.828 472.287 426.913C472.453 430.431 472.657 434.165 472.859 437.898C473.439 450.211 484.969 459.082 487.635 465.494C494.069 482.116 484.259 489.574 473.056 492.839C461.853 496.105 447.014 498.89 432.051 493.272C407.1 483.838 411.847 500.975 382.729 486.719C375.441 483.1 367.285 496.258 359.993 474.685C354.131 457.521 345.685 470.285 341.884 454.759C337.158 435.182 355.682 429.321 320.865 406.518C279.546 379.518 308.053 306.982 354.161 311.653C356.429 311.926 358.341 312.705 360.289 313.698C377.64 321.563 372.602 338.615 434.557 357.839C449.802 362.521 468.725 362.799 479.176 371.856Z" stroke="white" stroke-width="0.5"/>
<path d="M494.036 366.629C508.498 378.318 486.48 401.185 486.504 428.226C486.53 432.212 486.338 436.235 486.4 440.436C486.127 454.227 500.393 463.511 503.461 470.962C511.785 490.805 501.598 501.21 488.604 505.672C475.825 510.096 458.213 512.252 440.468 504.676C410.243 491.72 417.096 512.038 382.356 496.093C373.662 492.053 363.984 509.243 355.262 483.262C348.334 462.512 338.151 479.345 333.649 461.059C328.111 438.075 351.781 432.434 309.459 406.05C259.156 374.616 299.426 290.517 349.61 296.922C352.094 297.158 354.51 298.292 356.712 299.464C375.946 309.22 366.255 330.18 441.357 352.231C459.16 357.579 481.636 356.579 494.036 366.629Z" stroke="white" stroke-width="0.5"/>
<path d="M509.112 361.364C525.231 373.654 502.621 399.506 500.937 429.501C500.605 433.991 500.273 438.482 499.978 443.189C499.065 458.42 516.893 467.754 519.323 476.645C526.022 501.202 518.757 513.098 504.151 518.502C489.759 523.87 469.232 525.864 448.92 516.294C413.638 499.778 422.381 523.317 382.198 505.431C372.099 500.969 360.862 521.974 350.962 491.762C343.185 467.392 330.87 488.583 325.845 467.283C319.711 440.855 348.348 435.686 298.7 405.47C239.628 369.566 291.408 273.724 345.705 282.079C348.657 282.456 351.111 283.805 353.781 285.117C374.681 296.802 360.339 321.669 449.018 346.474C468.696 352.385 494.547 350.358 509.112 361.364Z" stroke="white" stroke-width="0.5"/>
<path d="M523.971 356.137C541.749 369.027 518.762 397.826 514.975 431.066C514.503 436.025 513.814 441.02 513.163 446.231C511.396 462.941 531.96 472.689 535.007 482.581C543.634 510.574 535.918 524.986 519.557 531.802C503.59 538.329 480.326 539.909 457.233 528.381C416.892 508.305 427.779 535.242 381.936 515.451C370.431 510.567 357.672 535.603 346.558 500.947C337.716 472.992 323.664 498.252 317.977 474.406C311.029 444.572 345.027 439.585 287.837 405.573C219.78 365.235 283.539 257.793 341.697 267.919C344.901 268.474 347.824 269.964 350.531 271.492C373.314 285.068 354.141 314.094 456.109 341.259C478.016 347.228 507.458 344.137 523.971 356.137Z" stroke="white" stroke-width="0.5"/>
<path d="M539.084 351.088C558.557 364.793 534.94 396.361 529.445 432.557C528.615 438.021 527.786 443.484 526.779 449.199C524.158 467.387 547.243 477.586 550.907 488.48C561.462 519.908 553.115 537.089 535.141 544.849C517.384 552.571 491.346 553.522 465.686 539.999C420.288 516.364 433.065 546.521 381.563 524.826C368.615 519.305 354.372 548.587 342.043 509.485C332.135 477.946 316.168 507.527 309.958 480.668C302.235 447.642 341.341 442.661 276.647 405.068C199.606 360.297 275.091 241.075 337.36 253.151C340.818 253.884 344.209 255.515 347.206 257.435C371.871 272.904 348.084 306.052 463.161 335.829C487.337 342.071 520.369 337.917 539.084 351.088Z" stroke="white" stroke-width="0.5"/>
<path d="M553.944 345.861C575.076 360.167 550.865 394.718 543.662 433.869C542.692 439.8 541.29 445.806 540.32 451.737C536.844 471.401 562.628 481.8 566.948 493.911C579.215 528.812 570.632 548.472 550.688 557.68C531.355 566.562 502.581 567.099 473.924 551.655C423.467 524.46 438.314 557.585 381.227 534.416C366.873 528.472 351.071 561.572 337.565 518.24C326.592 483.115 308.887 516.764 301.976 487.145C293.441 450.714 337.729 446.166 265.709 404.74C179.9 355.499 266.931 224.75 333.239 238.345C337.165 239.218 340.557 240.85 344.06 243.127C370.391 260.524 341.989 297.795 470.392 330.146C496.91 337.093 533.281 331.697 553.944 345.861Z" stroke="white" stroke-width="0.5"/>
<path d="M569.019 340.597C591.847 355.718 567.044 393.254 557.916 435.397C556.552 441.618 555.046 448.307 553.719 454.743C549.427 476.1 577.695 486.735 582.632 499.847C596.827 538.183 587.613 560.612 566.058 570.765C545.111 580.59 513.601 580.712 482.2 563.526C426.685 532.771 443.421 569.117 380.675 544.044C364.916 537.677 347.592 574.808 332.656 527.068C320.617 488.359 300.958 526.114 293.564 493.697C284.431 453.821 333.865 449.494 254.125 404.524C159.331 350.85 258.126 208.537 328.51 223.867C332.652 224.703 336.549 226.69 340.089 229.182C368.302 248.471 335.07 289.901 476.798 324.828C506.231 331.936 546.192 325.477 569.019 340.597Z" stroke="white" stroke-width="0.5"/>
<path d="M583.879 335.371C608.365 351.092 582.969 391.611 572.133 436.71C570.412 443.435 568.729 450.377 567.083 457.533C561.936 480.368 592.941 491.416 598.28 505.568C614.403 547.34 604.737 572.285 581.39 583.633C558.868 594.618 524.406 594.364 490.401 574.967C429.827 540.652 448.454 580.218 380.302 553.418C363.137 546.63 344.292 587.792 328.14 535.607C315.036 493.313 293.678 535.353 285.582 500.175C275.638 456.893 330.254 452.999 243.151 403.982C139.588 345.837 249.93 191.997 324.389 209.061C328.999 210.038 333.15 212.203 336.981 215.088C367.076 236.269 329.013 281.859 484.03 319.146C515.768 326.742 558.888 319.294 583.879 335.371Z" stroke="white" stroke-width="0.5"/>
<path d="M598.954 330.106C625.136 346.643 599.109 389.931 586.566 437.985C584.704 445.179 582.664 452.625 580.876 460.249C574.876 484.562 608.401 496.061 614.574 511.177C632.624 556.384 622.328 584.099 597.406 596.606C573.308 608.749 536.109 608.081 499.322 586.727C433.691 548.852 454.423 591.6 380.396 562.934C361.826 555.724 341.459 600.917 324.093 544.286C309.924 498.408 286.613 544.554 278.032 506.577C267.274 459.889 327.036 456.216 232.644 403.58C120.097 341.002 242.202 175.598 320.736 194.397C325.6 195.552 330.003 197.895 334.302 200.921C366.28 223.993 323.602 273.705 491.729 313.604C525.125 321.8 571.799 313.073 598.954 330.106Z" stroke="white" stroke-width="0.5"/>
<path d="M613.814 324.879C641.692 342.231 615.213 388.037 600.82 439.513C598.601 447.212 596.421 455.126 594.276 463.254C587.422 489.044 623.646 500.743 630.258 517.113C650.236 565.755 639.273 596.024 612.774 609.69C586.886 623.029 547.129 621.694 507.597 598.597C436.908 557.163 459.569 603.347 380.098 572.739C360.122 565.106 338.195 614.116 319.653 553.254C304.633 503.755 279.369 554.006 270.087 513.269C258.734 463.138 323.64 459.684 221.529 403.504C100.212 336.456 233.865 159.526 316.475 180.059C321.592 181.392 326.463 183.876 330.8 187.116C364.66 212.08 317.152 265.952 498.604 308.426C534.446 316.643 584.71 306.853 613.814 324.879Z" stroke="white" stroke-width="0.5"/>
<path d="M628.89 319.615C658.426 337.567 631.354 386.357 615.037 440.826C612.678 448.992 610.14 457.411 607.602 465.829C599.894 493.097 638.638 505.246 646.084 522.582C667.989 574.659 656.611 607.66 628.322 622.522C600.82 636.804 558.364 635.272 516.013 610.001C440.266 565.006 465.033 614.374 379.687 581.899C358.521 573.807 334.858 626.885 315.1 561.578C299.015 508.495 271.835 563.066 262.069 519.532C249.903 465.993 319.992 462.974 210.554 402.963C80.2539 331.48 225.453 143.023 312.354 165.253C317.939 166.727 323.064 169.389 327.653 172.808C363.395 199.663 311.057 257.695 506.05 302.706C543.982 311.449 597.658 300.847 628.89 319.615Z" stroke="white" stroke-width="0.5"/>
<path d="M643.749 314.388C675.197 333.118 647.279 384.714 629.291 442.353C626.575 451.025 623.681 459.949 621.002 468.835C612.439 497.58 653.92 510.144 661.768 528.517C685.564 583.816 673.593 619.8 643.475 635.643C614.398 651.085 568.99 649.175 524.073 621.909C443.268 573.355 469.925 625.942 379.172 591.742C356.601 583.227 331.415 640.336 310.228 570.622C293.078 513.953 264.16 572.594 253.693 526.299C240.715 469.354 315.949 466.555 198.97 402.747C59.6849 326.831 216.648 126.811 307.587 150.56C313.425 152.211 318.802 155.051 323.898 158.826C361.306 187.611 304.391 249.979 512.634 297.135C553.34 306.508 610.569 294.627 643.749 314.388Z" stroke="white" stroke-width="0.5"/>
<path d="M658.862 309.339C691.968 328.669 663.457 383.249 643.76 443.845C640.688 453.021 637.653 462.411 634.833 471.766C625.416 501.989 669.381 514.788 678.099 534.342C703.823 593.076 691.4 631.576 659.528 648.831C628.838 665.216 580.694 662.892 533.032 633.883C447.347 581.517 475.716 637.578 379.304 601.473C355.328 592.535 328.583 653.461 306.218 579.516C288.002 519.264 257.17 582.226 246.18 532.916C232.388 472.565 312.984 469.948 188.501 402.56C40.4473 322.174 208.957 110.626 303.972 136.11C310.241 137.687 315.909 140.92 321.041 144.91C360.332 175.586 298.586 242.115 520.155 291.846C562.661 301.351 623.48 288.407 658.862 309.339Z" stroke="white" stroke-width="0.5"/>
<path d="M673.722 304.112C708.524 324.258 679.383 381.608 657.978 445.157C654.764 454.801 651.372 464.697 648.196 474.557C637.962 506.472 684.626 519.47 693.746 540.063C721.398 602.232 708.307 643.286 674.86 661.7C642.379 679.281 591.714 676.505 541.017 645.361C450.274 589.435 480.749 648.679 378.678 610.67C353.259 601.095 325.245 666.23 301.45 587.877C282.169 524.04 249.599 591.07 237.946 539.217C223.557 475.421 309.12 473.276 177.311 402.055C20.273 317.235 200.546 94.1241 299.636 121.342C306.158 123.097 312.256 126.255 317.679 130.639C358.853 163.206 292.492 233.857 527.171 286.2C572.198 296.157 636.176 282.223 673.722 304.112Z" stroke="white" stroke-width="0.5"/>
<path d="M688.797 298.847C725.295 319.809 695.523 379.928 672.232 446.685C668.662 456.833 665.091 466.983 661.558 477.346C650.471 510.74 699.655 524.189 709.393 545.783C738.973 611.388 725.467 655.174 690.192 674.568C656.135 693.309 602.697 689.904 549.255 657.017C453.453 597.532 485.819 659.994 378.126 620.297C351.302 610.301 321.766 679.467 296.756 596.669C276.41 529.247 241.887 600.383 229.534 545.767C214.333 478.566 305.041 476.64 165.727 401.839C-0.079911 312.549 191.741 77.9109 294.906 106.863C301.681 108.797 308.032 112.133 313.961 116.872C357.017 151.332 285.862 226.357 533.83 281.06C581.555 291.215 649.087 276.003 688.797 298.847Z" stroke="white" stroke-width="0.5"/>
<path d="M703.657 293.62C741.812 315.182 711.449 378.285 686.449 447.997C682.737 458.614 678.811 469.268 675.137 480.099C663.195 514.97 715.116 528.834 725.472 551.429C756.979 620.469 742.843 667.025 705.992 687.578C670.36 707.477 613.969 703.696 557.924 668.598C457.064 605.553 491.32 671.237 378.184 629.598C349.954 619.178 318.896 692.376 292.672 605.133C271.26 534.126 235.036 609.547 221.946 551.955C205.932 481.347 302.039 479.819 155.146 401.006C-19.6452 307.283 183.722 61.1185 291.179 91.7679C298.422 93.8417 305.027 97.3569 310.993 102.311C355.931 138.662 279.946 217.847 541.202 274.91C591.091 286.021 662.035 269.997 703.657 293.62Z" stroke="white" stroke-width="0.5"/>
<path d="M718.732 288.356C758.584 310.734 727.805 376.568 700.882 449.273C696.813 460.394 692.53 471.553 688.715 482.852C675.919 519.201 730.323 533.3 741.335 557.113C774.77 629.589 759.966 678.697 721.54 700.41C684.295 721.253 625.204 717.272 566.377 680.217C460.459 613.611 496.822 682.478 377.848 639.187C348.212 628.346 315.595 705.36 287.941 613.709C265.464 539.118 227.288 618.644 213.748 558.47C197.138 484.418 298.175 483.147 143.993 400.716C-39.567 302.522 175.348 44.8308 286.843 76.9994C294.339 79.2515 301.412 82.9071 307.631 88.0397C354.451 126.282 273.636 209.627 548.217 269.264C600.412 280.864 674.947 263.777 718.732 288.356Z" stroke="white" stroke-width="0.5"/>
<path d="M733.592 283.13C775.139 306.322 743.514 374.963 715.135 450.801C710.711 462.427 706.286 474.053 702.115 485.858C688.464 523.684 745.605 538.198 757.234 563.011C792.561 638.708 777.379 690.764 737.161 713.672C698.34 735.673 636.476 731.063 574.905 692.266C463.929 622.101 502.183 694.188 377.764 648.956C346.723 637.692 312.585 718.737 283.716 622.64C260.388 544.428 220.259 628.059 206.02 565.125C188.634 487.882 294.779 486.615 133.093 400.604C-59.4517 297.977 167.226 28.7217 282.797 62.625C290.761 65.0175 297.872 68.8878 304.559 74.1614C353.261 114.295 267.654 202.015 555.738 263.975C609.769 275.923 687.642 257.594 733.592 283.13Z" stroke="white" stroke-width="0.5"/>
<path d="M748.668 277.865C791.874 301.658 759.87 373.246 729.353 452.114C724.787 464.208 720.006 476.339 715.441 488.433C700.937 527.737 760.598 542.701 772.844 568.517C810.095 647.649 794.249 702.259 752.24 726.362C711.844 749.523 647.244 744.499 582.852 703.529C466.998 629.551 507.178 705.074 376.922 658.19C344.475 646.504 308.816 731.581 278.732 631.038C254.339 549.241 212.294 637.194 197.533 571.246C179.335 490.596 290.661 489.765 121.65 399.921C-79.8788 292.86 158.562 12.041 278.208 47.6782C286.388 50.0344 294.004 54.2606 300.766 59.9645C351.351 101.99 260.988 194.299 562.323 258.404C619.091 270.766 700.554 251.374 748.668 277.865Z" stroke="white" stroke-width="0.5"/>
<path d="M763.528 272.638C808.427 297.246 775.796 371.603 743.57 453.426C738.61 465.81 733.726 478.624 729.019 491.186C713.698 532.183 776.021 547.131 788.745 574.416C828.142 656.946 811.662 714.325 767.825 739.409C725.638 763.765 658.479 758.075 591.344 715.363C470.43 637.826 512.502 716.568 376.802 667.743C342.949 655.635 305.73 744.528 274.469 639.755C249.011 554.374 205.229 646.395 189.767 577.687C170.757 493.631 287.444 492.981 110.675 399.378C-99.6222 287.847 150.15 -4.4621 274.087 32.8727C282.52 35.4064 290.606 39.7738 297.62 45.6553C350.087 89.5724 254.893 186.042 569.516 252.507C628.664 265.787 713.502 245.368 763.528 272.638Z" stroke="white" stroke-width="0.5"/>
<path d="M778.64 267.589C825.237 293.013 791.974 370.138 758.076 455.132C752.976 467.984 747.735 481.303 742.672 494.369C726.496 536.843 791.341 552.243 804.897 580.493C846.222 666.458 829.115 726.606 783.7 752.85C739.899 778.153 669.826 772.295 599.909 727.627C473.974 646.745 517.899 728.493 376.577 677.979C341.32 665.448 302.579 758.371 270.103 649.154C243.58 560.189 197.882 656.531 181.935 585.025C162.327 497.525 283.982 497.348 99.8864 399.911C-119.395 283.947 142.177 -19.7103 270.153 19.1442C279.055 21.8182 287.139 26.1848 294.66 32.423C349.009 78.2313 248.985 178.86 576.934 247.9C637.985 260.63 726.413 239.147 778.64 267.589Z" stroke="white" stroke-width="0.5"/>
<path d="M820.503 585.999C905.296 761.33 756.075 834.322 608.109 739.068C477.117 654.626 523.185 739.772 376.167 687.139C339.719 674.149 299.241 771.145 265.335 657.515C237.746 564.965 190.311 665.376 173.663 591.109C153.243 500.203 280.043 500.245 88.6598 399.191C-155.27 270.416 174.096 -81.5296 291.045 17.9732C347.099 65.9263 242.6 170.209 583.697 242.077C647.305 255.473 739.108 232.965 793.5 262.362C849.116 292.434 795.684 394.104 756.035 497.16C738.968 540.896 806.333 556.748 820.503 585.999Z" stroke="white" stroke-width="0.5"/>
</g>
<defs>
<clipPath id="clip0_6_152">
<rect width="846" height="782" fill="white"/>
</clipPath>
</defs>
</svg>
