<svg width="22" height="22" viewBox="0 0 22 22" fill="none" xmlns="http://www.w3.org/2000/svg">
<path d="M10.8145 0.00183211C16.9207 -0.108594 21.9364 4.78696 22.0054 10.8282C22.0745 16.9614 17.2106 21.9444 11.132 21.9996C5.06253 22.0502 0.0744482 17.1777 0.000823433 11.1733C-0.0728014 5.06763 4.80024 0.103056 10.8145 0.00183211ZM11.0077 17.3525C11.0077 17.3249 11.0077 17.3019 11.0077 17.2743C11.9096 17.2743 12.8161 17.2881 13.718 17.2697C14.3577 17.2559 14.9789 17.1179 15.5449 16.8004C16.709 16.1378 17.2336 15.0796 17.2658 13.7959C17.3119 11.937 17.298 10.0782 17.2704 8.21937C17.2566 7.32676 16.9759 6.50776 16.3501 5.8314C15.6507 5.08143 14.7626 4.75935 13.7779 4.74555C11.9326 4.71334 10.0874 4.71334 8.2422 4.74555C7.29888 4.75935 6.43839 5.06302 5.74816 5.75319C5.04412 6.45715 4.76803 7.33596 4.74042 8.29298C4.70361 9.56288 4.6944 10.8328 4.699 12.1027C4.699 12.7836 4.71741 13.4646 4.78183 14.141C4.95209 15.8618 6.14849 17.0718 7.86487 17.2237C8.90942 17.3157 9.95858 17.3111 11.0077 17.3525Z" fill="#398378"/>
<path d="M11.0068 5.80249C11.9547 5.8301 12.9026 5.8439 13.8505 5.88531C14.3521 5.90832 14.8307 6.04635 15.2402 6.35922C15.82 6.79632 16.1007 7.41287 16.1099 8.10763C16.1375 10.0355 16.1605 11.9633 16.1053 13.8866C16.0685 15.1979 15.185 16.0491 13.869 16.1043C12.4103 16.1641 10.947 16.1549 9.48368 16.1595C8.9591 16.1595 8.42532 16.1503 7.90535 16.0721C6.68134 15.8927 5.92668 15.1151 5.89447 13.882C5.84386 11.9541 5.83926 10.0263 5.89447 8.10303C5.93129 6.79172 6.81478 5.97733 8.13083 5.87611C8.31949 5.8623 8.51275 5.8393 8.70142 5.8393C9.46527 5.8347 10.2337 5.8393 10.9976 5.8393C11.0068 5.8301 11.0068 5.81629 11.0068 5.80249ZM11.016 14.2409C12.8106 14.2363 14.2509 12.7869 14.2509 10.9925C14.2463 9.19809 12.7968 7.75795 11.0022 7.76255C9.20759 7.76715 7.7627 9.21649 7.7673 11.0109C7.7673 12.8007 9.22139 14.2455 11.016 14.2409ZM14.3889 6.87454C13.9656 6.86994 13.6251 7.20122 13.6205 7.61992C13.6159 8.03861 13.9564 8.38369 14.3751 8.38369C14.7847 8.38369 15.1206 8.05702 15.1298 7.64292C15.139 7.21502 14.8169 6.87914 14.3889 6.87454Z" fill="#398378"/>
<path d="M11.0262 8.89943C12.1903 8.90403 13.1153 9.84725 13.1107 11.0159C13.1061 12.18 12.1627 13.1048 10.9939 13.1002C9.82975 13.0956 8.90484 12.1524 8.90944 10.9837C8.91404 9.81964 9.85276 8.89483 11.0262 8.89943Z" fill="#398378"/>
</svg>
