<svg width="93" height="17" viewBox="0 0 93 17" fill="none" xmlns="http://www.w3.org/2000/svg">
<path d="M12.7533 15.8368L8.89932 9.72934C10.3525 9.01329 11.2581 7.53907 11.2581 5.64365C11.2581 3.11642 9.08886 1.09464 6.60375 1.09464H0.91748V15.8368H4.0344V10.2137H5.63498L8.9625 15.8368H12.7533ZM4.0344 4.10625H6.28785C7.29874 4.10625 8.09903 4.84336 8.09903 5.79107C8.09903 6.78091 7.29874 7.51801 6.28785 7.51801H4.0344V4.10625Z" fill="white"/>
<path d="M17.3285 5.28563C14.2748 5.28563 11.9582 7.60226 11.9582 10.6771C11.9582 13.7519 14.2748 16.0474 17.3285 16.0474C20.3612 16.0474 22.6989 13.7519 22.6989 10.6771C22.6989 7.60226 20.3612 5.28563 17.3285 5.28563ZM17.3285 8.12876C18.7185 8.12876 19.7926 9.20284 19.7926 10.6771C19.7926 12.1092 18.7185 13.2043 17.3285 13.2043C15.9175 13.2043 14.8645 12.1092 14.8645 10.6771C14.8645 9.20284 15.9175 8.12876 17.3285 8.12876Z" fill="white"/>
<path d="M30.1672 13.0779C29.9356 13.1622 29.5354 13.2253 29.2406 13.2253C28.3771 13.2253 27.64 12.6146 27.64 11.6458V8.3183H30.1883V5.49623H27.64V2.77946H24.6705V5.49623H22.754V8.3183H24.6705V11.7932C24.6705 14.4679 26.3764 16.0053 28.7983 16.0053C29.3459 16.0053 29.9356 15.9 30.3146 15.7105L30.1672 13.0779Z" fill="white"/>
<path d="M38.6334 5.49623V6.97045C37.9174 5.89637 36.8012 5.28563 35.348 5.28563C32.6734 5.28563 30.5463 7.6865 30.5463 10.656C30.5463 13.6255 32.6734 16.0474 35.348 16.0474C36.8012 16.0474 37.9174 15.4367 38.6334 14.3626V15.8368H41.6029V5.49623H38.6334ZM36.043 13.2043C34.6109 13.2043 33.4526 12.0881 33.4526 10.656C33.4526 9.24496 34.6109 8.1077 36.043 8.1077C37.4962 8.1077 38.6334 9.2239 38.6334 10.656C38.6334 12.1092 37.4962 13.2043 36.043 13.2043Z" fill="white"/>
<path d="M48.4378 0.884033C45.4051 0.884033 43.278 2.82158 43.278 5.32775C43.278 10.6349 50.7544 8.99223 50.7544 11.4773C50.7544 12.4251 49.8489 13.0147 48.5221 13.0147C46.7741 13.0147 45.5315 12.1302 44.4153 10.9719L42.4146 13.2464C43.6782 14.847 46.2475 16.0474 48.5221 16.0474C51.9759 16.0474 53.9556 13.794 53.9556 11.4563C53.9556 6.08592 46.416 7.60226 46.416 5.09608C46.416 4.38004 47.1321 3.89565 48.1851 3.89565C49.3855 3.89565 50.8176 4.52746 51.9128 5.60153L53.7239 3.13748C52.6077 1.85281 50.3332 0.884033 48.4378 0.884033Z" fill="white"/>
<path d="M60.8797 5.28563C59.7003 5.28563 58.7315 5.85425 58.0786 6.84409V1.09464H55.1091V15.8368H58.0786V10.3611C58.0786 9.01329 58.8789 8.12876 60.1215 8.12876C61.343 8.12876 62.1643 9.01329 62.1643 10.3611V15.8368H65.1338V9.98207C65.1338 7.05469 63.5332 5.28563 60.8797 5.28563Z" fill="white"/>
<path d="M71.6245 5.28563C68.5708 5.28563 66.2541 7.60226 66.2541 10.6771C66.2541 13.7519 68.5708 16.0474 71.6245 16.0474C74.6572 16.0474 76.9949 13.7519 76.9949 10.6771C76.9949 7.60226 74.6572 5.28563 71.6245 5.28563ZM71.6245 8.12876C73.0145 8.12876 74.0885 9.20284 74.0885 10.6771C74.0885 12.1092 73.0145 13.2043 71.6245 13.2043C70.2135 13.2043 69.1604 12.1092 69.1604 10.6771C69.1604 9.20284 70.2135 8.12876 71.6245 8.12876Z" fill="white"/>
<path d="M80.4481 15.8368H82.7437L84.8497 10.1716L86.9346 15.8368H89.2723L93 5.49623H89.7988L88.093 11.1614L86.008 5.49623H83.6914L81.6275 11.1614L79.9005 5.49623H76.7204L80.4481 15.8368Z" fill="white"/>
</svg>
