<svg width="101" height="18" viewBox="0 0 101 18" fill="none" xmlns="http://www.w3.org/2000/svg">
<path d="M9.47706 14.1071C9.20434 14.2063 8.73328 14.2807 8.38618 14.2807C7.36968 14.2807 6.50193 13.5617 6.50193 12.4212V8.50393H9.50186V5.18169H6.50193V1.98343H3.00614V5.18169H0.75V8.50393H3.00614V12.5947C3.00614 15.7434 5.01436 17.5533 7.86553 17.5533C8.51015 17.5533 9.20434 17.4293 9.65061 17.2062L9.47706 14.1071Z" fill="white"/>
<path d="M17.398 4.93377C16.3319 4.93377 14.9931 5.65276 14.4724 6.69406V5.18169H10.9766V17.355H14.4724V11.3551C14.4724 9.19813 15.8856 8.30559 17.0509 8.30559C17.5963 8.30559 18.1418 8.40476 18.6128 8.6031L19.0095 5.20649C18.6376 5.03294 18.0426 4.93377 17.398 4.93377Z" fill="white"/>
<path d="M28.1212 5.18169V6.91719C27.2783 5.65276 25.9643 4.93377 24.2536 4.93377C21.1049 4.93377 18.6008 7.76014 18.6008 11.2559C18.6008 14.7517 21.1049 17.6029 24.2536 17.6029C25.9643 17.6029 27.2783 16.8839 28.1212 15.6195V17.355H31.617V5.18169H28.1212ZM25.0717 14.2559C23.3858 14.2559 22.0222 12.9418 22.0222 11.2559C22.0222 9.59481 23.3858 8.256 25.0717 8.256C26.7824 8.256 28.1212 9.57002 28.1212 11.2559C28.1212 12.9666 26.7824 14.2559 25.0717 14.2559Z" fill="white"/>
<path d="M45.4648 5.18169H41.6467L38.9443 12.5947L36.1923 5.18169H32.399L37.4567 17.355H40.4318L45.4648 5.18169Z" fill="white"/>
<path d="M57.0879 10.7353C57.0879 7.48742 54.5095 4.93377 51.212 4.93377C47.6667 4.93377 44.8899 7.66097 44.8899 11.2063C44.8899 14.8261 47.7163 17.6029 51.2864 17.6029C53.8153 17.6029 55.8483 16.6608 56.7408 15.0492L54.0136 13.3881C53.5922 14.1319 52.4517 14.6277 51.3608 14.6277C49.6997 14.6277 48.5592 13.76 48.2369 12.0989H56.9888C57.0631 11.6278 57.0879 11.1568 57.0879 10.7353ZM48.2865 9.86753C48.6088 8.55351 49.5757 7.76014 51.0385 7.76014C52.3277 7.76014 53.4434 8.65269 53.5922 9.86753H48.2865Z" fill="white"/>
<path d="M61.9177 0H58.4219V17.355H61.9177V0Z" fill="white"/>
<path d="M75.3387 10.7353C75.3387 7.48742 72.7603 4.93377 69.4628 4.93377C65.9175 4.93377 63.1407 7.66097 63.1407 11.2063C63.1407 14.8261 65.9671 17.6029 69.5372 17.6029C72.0661 17.6029 74.0991 16.6608 74.9916 15.0492L72.2644 13.3881C71.8429 14.1319 70.7025 14.6277 69.6116 14.6277C67.9505 14.6277 66.81 13.76 66.4877 12.0989H75.2396C75.3139 11.6278 75.3387 11.1568 75.3387 10.7353ZM66.5373 9.86753C66.8596 8.55351 67.8265 7.76014 69.2893 7.76014C70.5785 7.76014 71.6942 8.65269 71.8429 9.86753H66.5373Z" fill="white"/>
<path d="M83.094 4.93377C82.0279 4.93377 80.6891 5.65276 80.1685 6.69406V5.18169H76.6727V17.355H80.1685V11.3551C80.1685 9.19813 81.5817 8.30559 82.7469 8.30559C83.2924 8.30559 83.8378 8.40476 84.3089 8.6031L84.7056 5.20649C84.3337 5.03294 83.7386 4.93377 83.094 4.93377Z" fill="white"/>
<path d="M89.6757 17.6029C92.5021 17.6029 94.4855 15.9666 94.4855 13.7104C94.4112 9.34688 87.8163 10.3138 87.7915 8.55352C87.7915 8.00807 88.3865 7.58659 89.2791 7.58659C90.5931 7.58659 92.1302 8.13204 93.0724 8.85103L94.0641 6.32216C92.8492 5.35524 91.1385 4.93377 89.4278 4.93377C86.5519 4.93377 84.5188 6.69406 84.5436 8.97499C84.5932 13.4625 91.1385 12.0741 91.1633 13.9336C91.1633 14.5038 90.4691 14.9253 89.3782 14.9253C87.8907 14.9253 86.4031 14.479 85.2626 13.636L84.2213 16.0657C85.6841 17.107 87.5931 17.6029 89.6757 17.6029Z" fill="white"/>
<path d="M98.0276 17.6029C99.3168 17.6029 100.309 16.6112 100.309 15.3715C100.309 14.1319 99.3168 13.165 98.0276 13.165C96.7632 13.165 95.7715 14.1319 95.7715 15.3715C95.7715 16.6112 96.7632 17.6029 98.0276 17.6029Z" fill="white"/>
</svg>
