<svg width="69" height="13" viewBox="0 0 69 13" fill="none" xmlns="http://www.w3.org/2000/svg">
<path d="M4.63832 12.4212H7.34074L9.82002 5.75193L12.2745 12.4212H15.0265L19.4148 0.247928H15.6463L13.6381 6.91719L11.1836 0.247928H8.45642L6.02672 6.91719L3.99371 0.247928H0.25L4.63832 12.4212Z" fill="white"/>
<path d="M28.6048 0.247928V1.98342C27.7619 0.718991 26.4478 0 24.7371 0C21.5885 0 19.0844 2.82638 19.0844 6.32216C19.0844 9.81795 21.5885 12.6691 24.7371 12.6691C26.4478 12.6691 27.7619 11.9501 28.6048 10.6857V12.4212H32.1006V0.247928H28.6048ZM25.5553 9.32209C23.8694 9.32209 22.5058 8.00807 22.5058 6.32216C22.5058 4.66105 23.8694 3.32224 25.5553 3.32224C27.266 3.32224 28.6048 4.63625 28.6048 6.32216C28.6048 8.03287 27.266 9.32209 25.5553 9.32209Z" fill="white"/>
<path d="M45.9483 0.247928H42.1303L39.4278 7.66097L36.6758 0.247928H32.8825L37.9403 12.4212H40.9154L45.9483 0.247928Z" fill="white"/>
<path d="M57.5715 5.80151C57.5715 2.55366 54.9931 0 51.6956 0C48.1503 0 45.3735 2.72721 45.3735 6.27258C45.3735 9.89233 48.1998 12.6691 51.77 12.6691C54.2989 12.6691 56.3319 11.727 57.2244 10.1155L54.4972 8.45434C54.0757 9.19813 52.9353 9.69398 51.8444 9.69398C50.1833 9.69398 49.0428 8.82623 48.7205 7.16512H57.4724C57.5467 6.69405 57.5715 6.22299 57.5715 5.80151ZM48.7701 4.93377C49.0924 3.61975 50.0593 2.82638 51.5221 2.82638C52.8113 2.82638 53.927 3.71892 54.0757 4.93377H48.7701Z" fill="white"/>
<path d="M63.2553 12.6691C66.0816 12.6691 68.0651 11.0328 68.0651 8.77665C67.9907 4.41312 61.3958 5.38004 61.371 3.61975C61.371 3.07431 61.966 2.65283 62.8586 2.65283C64.1726 2.65283 65.7098 3.19827 66.6519 3.91726L67.6436 1.3884C66.4287 0.421477 64.718 0 63.0073 0C60.1314 0 58.0984 1.76029 58.1232 4.04123C58.1727 8.52872 64.718 7.14033 64.7428 8.99978C64.7428 9.57002 64.0486 9.9915 62.9578 9.9915C61.4702 9.9915 59.9826 9.54523 58.8422 8.70227L57.8009 11.132C59.2636 12.1733 61.1727 12.6691 63.2553 12.6691Z" fill="white"/>
</svg>
